# xmcd
#
# Track frame offsets: 
#        150
#        14504
#        26683
#        39302
#        51288
#        64292
#        77418
#        91141
#        108437
#        120199
#        132388
#        142307
#        153690
#        168620
#        184850
#        198326
#        210596
#
# Disc length: 2949 seconds
#
# Revision: 0
# Processed by: cddbd v1.5.2PL0 Copyright (c) Steve Scherf et al.
# Submitted via: ExactAudioCopy v0.95b3
#
DISCID=ee0b8311
DTITLE=Diana Ross and The Supremes  - The Love Collection(FLAC)
DYEAR=1900
DGENRE=
TTITLE0=I'm Gonna Make You Love Me(With the Temptations)
TTITLE1=Come See About me
TTITLE2=You Can't Hurry Love
TTITLE3=Baby Love
TTITLE4=Back in My Arms Again
TTITLE5=What the World Needs Now Is Love
TTITLE6=Baby I Need Your Loving
TTITLE7=Unchained Melody
TTITLE8=My World Is Empty without You
TTITLE9=I Guess I'll Always Love You
TTITLE10=Love Is in Our Hearts
TTITLE11=Falling in Love with Love
TTITLE12=My Funny Valentine
TTITLE13=I'm so Glad I Got Somebody(Like You around)
TTITLE14=No Matter What Sign You Are
TTITLE15=Whisper You Love Me Baby
TTITLE16=I'm in Love Again
EXTD=
EXTT0=
EXTT1=
EXTT2=
EXTT3=
EXTT4=
EXTT5=
EXTT6=
EXTT7=
EXTT8=
EXTT9=
EXTT10=
EXTT11=
EXTT12=
EXTT13=
EXTT14=
EXTT15=
EXTT16=
PLAYORDER=
